<?xml version="1.0" standalone="no"?><!DOCTYPE svg PUBLIC "-//W3C//DTD SVG 1.1//EN" "http://www.w3.org/Graphics/SVG/1.1/DTD/svg11.dtd"><svg t="1583400357450" class="icon" viewBox="0 0 1024 1024" version="1.1" xmlns="http://www.w3.org/2000/svg" p-id="2502" xmlns:xlink="http://www.w3.org/1999/xlink" width="128" height="128"><defs><style type="text/css"></style></defs><path d="M844.483951 76.57425 176.626455 76.57425c-34.313933 0-62.126279 27.812346-62.126279 62.126279l0 742.986949c0 34.313933 27.812346 62.126279 62.126279 62.126279l667.496296 0c34.313933 0 62.126279-27.812346 62.126279-62.126279L906.24903 138.700529C906.610229 104.386596 878.797884 76.57425 844.483951 76.57425zM608.982011 552.273721 230.806349 552.273721c-7.585185 0-14.086772-6.140388-14.086772-14.086772s6.140388-14.086772 14.086772-14.086772l378.536861 0c7.585185 0 14.086772 6.140388 14.086772 14.086772S616.928395 552.273721 608.982011 552.273721zM788.859259 411.767196 230.806349 411.767196c-7.585185 0-14.086772-6.140388-14.086772-14.086772 0-7.585185 6.140388-14.086772 14.086772-14.086772l558.414109 0c7.585185 0 14.086772 6.140388 14.086772 14.086772C802.946032 405.265608 796.805644 411.767196 788.859259 411.767196zM788.859259 270.899471 230.806349 270.899471c-7.585185 0-14.086772-6.140388-14.086772-14.086772s6.140388-14.086772 14.086772-14.086772l558.414109 0c7.585185 0 14.086772 6.140388 14.086772 14.086772S796.805644 270.899471 788.859259 270.899471z" p-id="2503"></path></svg>